<svg xmlns="http://www.w3.org/2000/svg" viewBox="0 0 609.86 263.59"><defs><style>.cls-1{opacity:0.5;}.cls-2{fill:#fcfcfc;}</style></defs><g id="Layer_2" data-name="Layer 2"><g id="Livello_1" data-name="Livello 1"><g class="cls-1"><polygon class="cls-2" points="345.92 121.19 224.42 0 255.83 0 361.63 105.48 345.92 121.19"/></g><polygon class="cls-2" points="283.19 121.19 214.65 52.72 246 52.72 298.9 105.49 283.19 121.19"/><g class="cls-1"><polygon class="cls-2" points="298.88 105.43 194 210.35 162.8 210.14 283.18 89.73 298.88 105.43"/></g><polygon class="cls-2" points="361.63 105.43 203.38 263.59 171.98 263.59 345.92 89.73 361.63 105.43"/><polyline class="cls-2" points="109.66 178.93 140.3 178.93 140.3 185.58 117.61 185.58 117.61 203.55 146.74 203.55 146.74 210.14 109.66 210.14"/><polyline class="cls-2" points="109.66 156.46 145.38 156.46 145.38 163.03 109.66 163.03"/><polygon class="cls-2" points="377.51 163.04 360.9 163.04 360.9 210.14 352.95 210.14 352.95 163.04 336.34 163.04 336.34 156.45 377.51 156.45 377.51 163.04"/><path class="cls-2" d="M497.48,183.29a27.28,27.28,0,1,1-27.27-27.49,27.19,27.19,0,0,1,27.27,27.49m-46.6,0c0,11,8,21,19.33,21s19.32-10,19.32-21-8-20.91-19.32-20.91-19.33,10-19.33,20.91"/><path class="cls-2" d="M591,196H578.07v14.17h-8V156.45H591c10.45.07,18.9,8.87,18.9,19.76S601.41,195.89,591,196m10.95-19.76C601.91,169,597,163,590.82,163H578.07v26.34h12.75c6.15,0,11.09-5.94,11.09-13.16"/><path class="cls-2" d="M34.94,156.45v36.72c0,8.66-4.24,17.68-17.4,17.68S0,201.83,0,193.17H7.94c0,3.22.29,11.09,9.6,11.09s9.37-7.87,9.37-11.09V156.45Z"/></g></g></svg>